grf
version=1
nRows=17
nColumns=37
inDegrees=no
endheader
time	ground_force_1_vx	ground_force_1_vy	ground_force_1_vz	ground_force_1_px	ground_force_1_py	ground_force_1_pz	ground_moment_1_mx	ground_moment_1_my	ground_moment_1_mz	ground_force_2_vx	ground_force_2_vy	ground_force_2_vz	ground_force_2_px	ground_force_2_py	ground_force_2_pz	ground_moment_2_mx	ground_moment_2_my	ground_moment_2_mz	ground_force_3_vx	ground_force_3_vy	ground_force_3_vz	ground_force_3_px	ground_force_3_py	ground_force_3_pz	ground_moment_3_mx	ground_moment_3_my	ground_moment_3_mz	ground_force_4_vx	ground_force_4_vy	ground_force_4_vz	ground_force_4_px	ground_force_4_py	ground_force_4_pz	ground_moment_4_mx	ground_moment_4_my	ground_moment_4_mz
      2.20000000	      0.00000000	     -0.00000000	      0.00000000	      0.00000000	      0.00000000	      0.00000000	      0.00000000	      0.00000000	      0.00000000	     -2.96102810	     37.78749084	   -373.09326172	   -323.34227288	  -1068.72439814	      0.00000000	      0.00000000	      0.00000000	   5003.96016853	      3.77691797	    -37.75083956	   -394.19219971	   -322.85624932	   -714.18818324	      0.00000000	      0.00000000	     -0.00000000	  -4051.31668094	      0.00000000	     -0.00000000	      0.00000000	      0.00000000	      0.00000000	      0.00000000	      0.00000000	      0.00000000	      0.00000000
      2.21000000	      0.00000000	     -0.00000000	      0.00000000	      0.00000000	      0.00000000	      0.00000000	      0.00000000	      0.00000000	      0.00000000	     -2.92693138	     38.00355148	   -372.10058594	   -323.50583023	  -1068.87908070	      0.00000000	      0.00000000	      0.00000000	   4947.71124263	      4.17332658	    -37.17045248	   -394.05871582	   -322.63250145	   -713.15163292	      0.00000000	      0.00000000	     -0.00000000	  -4141.09032868	      0.00000000	     -0.00000000	      0.00000000	      0.00000000	      0.00000000	      0.00000000	      0.00000000	      0.00000000	      0.00000000
      2.22000000	      0.00000000	     -0.00000000	      0.00000000	      0.00000000	      0.00000000	      0.00000000	      0.00000000	      0.00000000	      0.00000000	     -2.77795625	     37.39641571	   -372.90881348	   -323.36991603	  -1069.36131762	      0.00000000	     -0.00000000	      0.00000000	   4975.29381387	      4.33424052	    -37.18343391	   -394.97384644	   -321.82767718	   -712.87940928	      0.00000000	      0.00000000	     -0.00000000	  -4241.50350052	      0.00000000	     -0.00000000	      0.00000000	      0.00000000	      0.00000000	      0.00000000	      0.00000000	      0.00000000	      0.00000000
      2.23000000	      0.00000000	     -0.00000000	      0.00000000	      0.00000000	      0.00000000	      0.00000000	      0.00000000	      0.00000000	      0.00000000	     -2.68835163	     37.48534775	   -372.45205688	   -323.10820173	  -1070.30359574	      0.00000000	      0.00000000	      0.00000000	   5108.29388835	      4.36364231	    -37.07836571	   -393.36151123	   -321.67489788	   -713.53092046	      0.00000000	      0.00000000	     -0.00000000	  -4284.98091067	      0.00000000	     -0.00000000	      0.00000000	      0.00000000	      0.00000000	      0.00000000	      0.00000000	      0.00000000	      0.00000000
      2.24000000	      0.00000000	     -0.00000000	      0.00000000	      0.00000000	      0.00000000	      0.00000000	      0.00000000	      0.00000000	      0.00000000	     -2.98275280	     37.29008102	   -371.05911255	   -322.08646416	  -1070.18985267	      0.00000000	      0.00000000	      0.00000000	   5234.80394095	      5.02302226	    -37.16676374	   -392.66378784	   -321.58507920	   -713.32435015	      0.00000000	      0.00000000	     -0.00000000	  -4318.67160273	      0.00000000	     -0.00000000	      0.00000000	      0.00000000	      0.00000000	      0.00000000	      0.00000000	      0.00000000	      0.00000000
      2.25000000	      0.00000000	     -0.00000000	      0.00000000	      0.00000000	      0.00000000	      0.00000000	      0.00000000	      0.00000000	      0.00000000	     -3.17257786	     37.37908554	   -370.64016724	   -320.90130922	  -1070.75636734	      0.00000000	      0.00000000	     -0.00000000	   5327.56770658	      5.15053186	    -37.15021941	   -390.54846191	   -320.92136108	   -713.69912672	      0.00000000	      0.00000000	     -0.00000000	  -4275.23225742	      0.00000000	     -0.00000000	      0.00000000	      0.00000000	      0.00000000	      0.00000000	      0.00000000	      0.00000000	      0.00000000
      2.26000000	      0.00000000	     -0.00000000	      0.00000000	      0.00000000	      0.00000000	      0.00000000	      0.00000000	      0.00000000	      0.00000000	     -3.81938100	     37.47393417	   -370.26455688	   -321.63148858	  -1069.86607089	      0.00000000	      0.00000000	      0.00000000	   5324.18507594	      4.73489819	    -37.05641597	   -389.78399658	   -320.25722991	   -713.35565473	      0.00000000	      0.00000000	     -0.00000000	  -4178.36937657	      0.00000000	     -0.00000000	      0.00000000	      0.00000000	      0.00000000	      0.00000000	      0.00000000	      0.00000000	      0.00000000
      2.27000000	      0.00000000	     -0.00000000	      0.00000000	      0.00000000	      0.00000000	      0.00000000	      0.00000000	      0.00000000	      0.00000000	     -3.89207125	     37.57364273	   -371.92315674	   -319.87148264	  -1069.70787610	      0.00000000	      0.00000000	      0.00000000	   5319.50248206	      4.45808705	    -37.19990197	   -389.01998901	   -319.99152711	   -712.57553601	      0.00000000	      0.00000000	     -0.00000000	  -4388.19176269	      0.00000000	     -0.00000000	      0.00000000	      0.00000000	      0.00000000	      0.00000000	      0.00000000	      0.00000000	      0.00000000
      2.28000000	      0.00000000	     -0.00000000	      0.00000000	      0.00000000	      0.00000000	      0.00000000	      0.00000000	      0.00000000	      0.00000000	     -4.31516457	     37.79784775	   -371.42791748	   -318.59821953	  -1068.45003439	      0.00000000	      0.00000000	      0.00000000	   5374.69035561	      4.24163968	    -37.40928306	   -389.01974487	   -319.30261986	   -713.06306365	      0.00000000	      0.00000000	     -0.00000000	  -4460.34583138	      0.00000000	     -0.00000000	      0.00000000	      0.00000000	      0.00000000	      0.00000000	      0.00000000	      0.00000000	      0.00000000
      2.29000000	      0.00000000	     -0.00000000	      0.00000000	      0.00000000	      0.00000000	      0.00000000	      0.00000000	      0.00000000	      0.00000000	     -4.24917555	     37.46766663	   -376.80508423	   -318.99341395	  -1071.41001012	      0.00000000	      0.00000000	      0.00000000	   5584.30335940	      4.03454743	    -37.04609715	   -389.26568604	   -318.05775224	   -712.07933356	      0.00000000	      0.00000000	     -0.00000000	  -4413.61906529	      0.00000000	     -0.00000000	      0.00000000	      0.00000000	      0.00000000	      0.00000000	      0.00000000	      0.00000000	      0.00000000
      2.30000000	      0.00000000	     -0.00000000	      0.00000000	      0.00000000	      0.00000000	      0.00000000	      0.00000000	      0.00000000	      0.00000000	     -4.67898989	     37.85493088	   -374.78881836	   -318.28202601	  -1070.25462712	      0.00000000	     -0.00000000	      0.00000000	   5595.89366408	      4.34682524	    -36.83014717	   -388.32089233	   -318.60163489	   -713.01934208	      0.00000000	      0.00000000	      0.00000000	  -4614.51261451	      0.00000000	     -0.00000000	      0.00000000	      0.00000000	      0.00000000	      0.00000000	      0.00000000	      0.00000000	      0.00000000
      2.31000000	      0.00000000	     -0.00000000	      0.00000000	      0.00000000	      0.00000000	      0.00000000	      0.00000000	      0.00000000	      0.00000000	     -4.71183348	     37.45980072	   -376.36056519	   -317.90731042	  -1071.18021399	      0.00000000	     -0.00000000	      0.00000000	   5596.38545449	      4.36309444	    -36.87873878	   -388.70483398	   -318.74277530	   -712.56973271	      0.00000000	      0.00000000	     -0.00000000	  -4542.51835066	      0.00000000	     -0.00000000	      0.00000000	      0.00000000	      0.00000000	      0.00000000	      0.00000000	      0.00000000	      0.00000000
      2.32000000	      0.00000000	     -0.00000000	      0.00000000	      0.00000000	      0.00000000	      0.00000000	      0.00000000	      0.00000000	      0.00000000	     -4.95499611	     37.53185272	   -375.23727417	   -317.01744998	  -1070.82227716	      0.00000000	      0.00000000	      0.00000000	   5643.57998573	      4.45173274	    -36.94228783	   -390.92230225	   -318.09640365	   -712.45838298	      0.00000000	     -0.00000000	     -0.00000000	  -4658.63417091	      0.00000000	     -0.00000000	      0.00000000	      0.00000000	      0.00000000	      0.00000000	      0.00000000	      0.00000000	      0.00000000
      2.33000000	      0.00000000	     -0.00000000	      0.00000000	      0.00000000	      0.00000000	      0.00000000	      0.00000000	      0.00000000	      0.00000000	     -5.31235600	     37.16738129	   -373.27990723	   -317.65428206	  -1068.93458602	      0.00000000	      0.00000000	     -0.00000000	   5704.72909827	      3.84682500	    -36.80606876	   -394.85867310	   -317.91748483	   -712.24657675	      0.00000000	      0.00000000	      0.00000000	  -4630.51665078	      0.00000000	     -0.00000000	      0.00000000	      0.00000000	      0.00000000	      0.00000000	      0.00000000	      0.00000000	      0.00000000
      2.34000000	      0.00000000	     -0.00000000	      0.00000000	      0.00000000	      0.00000000	      0.00000000	      0.00000000	      0.00000000	      0.00000000	     -4.85711670	     37.12766266	   -373.69848633	   -316.41605337	  -1070.68387679	      0.00000000	      0.00000000	      0.00000000	   6023.60609995	      3.62107193	    -36.90246995	   -396.88919067	   -318.33606640	   -712.67609827	      0.00000000	     -0.00000000	     -0.00000000	  -4646.79907165	      0.00000000	     -0.00000000	      0.00000000	      0.00000000	      0.00000000	      0.00000000	      0.00000000	      0.00000000	      0.00000000
      2.35000000	      0.00000000	     -0.00000000	      0.00000000	      0.00000000	      0.00000000	      0.00000000	      0.00000000	      0.00000000	      0.00000000	     -6.07337141	     37.31358337	   -375.33880615	   -315.48864169	  -1070.83304277	      0.00000000	      0.00000000	      0.00000000	   5942.00178180	      3.29828773	    -36.99086790	   -398.50790405	   -318.47812798	   -712.75123681	      0.00000000	      0.00000000	     -0.00000000	  -4725.90581139	      0.00000000	     -0.00000000	      0.00000000	      0.00000000	      0.00000000	      0.00000000	      0.00000000	      0.00000000	      0.00000000
      2.36000000	      0.00000000	     -0.00000000	      0.00000000	      0.00000000	      0.00000000	      0.00000000	      0.00000000	      0.00000000	      0.00000000	     -6.35658836	     37.56513596	   -374.76080322	   -316.48818639	  -1070.00188809	      0.00000000	      0.00000000	      0.00000000	   6151.72532655	      3.83956444	    -36.88674960	   -403.36853027	   -318.06019663	   -711.17274563	      0.00000000	      0.00000000	     -0.00000000	  -4755.34433956	      0.00000000	     -0.00000000	      0.00000000	      0.00000000	      0.00000000	      0.00000000	      0.00000000	      0.00000000	      0.00000000
